<mxfile host="app.diagrams.net" agent="Mozilla/5.0 (Macintosh; Intel Mac OS X 10_15_7) AppleWebKit/605.1.15 (KHTML, like Gecko) Version/18.3 Safari/605.1.15" version="26.0.15">
  <diagram name="Page-1" id="FEfbTNsMQgeLJzcUuxWv">
    <mxGraphModel dx="2261" dy="1904" grid="1" gridSize="10" guides="1" tooltips="1" connect="1" arrows="1" fold="1" page="1" pageScale="1" pageWidth="827" pageHeight="1169" math="0" shadow="0">
      <root>
        <mxCell id="0" />
        <mxCell id="1" parent="0" />
        <mxCell id="2" value="Transaction Handling" style="whiteSpace=wrap;strokeWidth=2;verticalAlign=top;" parent="1" vertex="1">
          <mxGeometry x="-140" y="-30" width="2671" height="543" as="geometry" />
        </mxCell>
        <mxCell id="3" value="Update account balances" style="whiteSpace=wrap;strokeWidth=2;" parent="2" vertex="1">
          <mxGeometry x="1724.9158807996982" y="106" width="241.81063749528482" height="54" as="geometry" />
        </mxCell>
        <mxCell id="5" value="Request to initiate a transaction" style="whiteSpace=wrap;strokeWidth=2;" parent="2" vertex="1">
          <mxGeometry x="140" y="198" width="205.59" height="78" as="geometry" />
        </mxCell>
        <mxCell id="6" value="Is the account valid?" style="rhombus;strokeWidth=2;whiteSpace=wrap;" parent="2" vertex="1">
          <mxGeometry x="421.1535269709544" y="136" width="201.50886457940402" height="200" as="geometry" />
        </mxCell>
        <mxCell id="7" value="Verify account balance" style="whiteSpace=wrap;strokeWidth=2;" parent="2" vertex="1">
          <mxGeometry x="727.4470011316484" y="158" width="225.6899283289325" height="54" as="geometry" />
        </mxCell>
        <mxCell id="8" value="Error: Invalid account" style="whiteSpace=wrap;strokeWidth=2;" parent="2" vertex="1">
          <mxGeometry x="731.4771784232365" y="262" width="217.62957374575632" height="54" as="geometry" />
        </mxCell>
        <mxCell id="9" value="Sufficient balance?" style="rhombus;strokeWidth=2;whiteSpace=wrap;" parent="2" vertex="1">
          <mxGeometry x="1027.6952093549603" y="90" width="191.4334213504338" height="190" as="geometry" />
        </mxCell>
        <mxCell id="10" value="Proceed with transaction" style="whiteSpace=wrap;strokeWidth=2;" parent="2" vertex="1">
          <mxGeometry x="1327.9434175782724" y="106" width="240.8030931723878" height="54" as="geometry" />
        </mxCell>
        <mxCell id="11" value="Error: Transaction fails" style="whiteSpace=wrap;strokeWidth=2;" parent="2" vertex="1">
          <mxGeometry x="1322.9056959637874" y="210" width="249.87099207846097" height="54" as="geometry" />
        </mxCell>
        <mxCell id="12" value="Generate transaction history" style="whiteSpace=wrap;strokeWidth=2;" parent="2" vertex="1">
          <mxGeometry x="2042.2923425122597" y="94" width="261.9615239532252" height="78" as="geometry" />
        </mxCell>
        <mxCell id="13" value="Complete transaction" style="whiteSpace=wrap;strokeWidth=2;" parent="2" vertex="1">
          <mxGeometry x="2379.8196906827616" y="106" width="215.61448509996228" height="54" as="geometry" />
        </mxCell>
        <mxCell id="15" value="" style="curved=1;startArrow=none;endArrow=block;exitX=1;exitY=0.49;entryX=0;entryY=0.5;" parent="2" source="5" target="6" edge="1">
          <mxGeometry relative="1" as="geometry">
            <Array as="points" />
          </mxGeometry>
        </mxCell>
        <mxCell id="16" value="Yes" style="curved=1;startArrow=none;endArrow=block;exitX=1;exitY=0.33;entryX=0;entryY=0.49;" parent="2" source="6" target="7" edge="1">
          <mxGeometry relative="1" as="geometry">
            <Array as="points">
              <mxPoint x="675.0546963410035" y="185" />
            </Array>
          </mxGeometry>
        </mxCell>
        <mxCell id="17" value="No" style="curved=1;startArrow=none;endArrow=block;exitX=1;exitY=0.67;entryX=0;entryY=0.49;" parent="2" source="6" target="8" edge="1">
          <mxGeometry relative="1" as="geometry">
            <Array as="points">
              <mxPoint x="675.0546963410035" y="289" />
            </Array>
          </mxGeometry>
        </mxCell>
        <mxCell id="18" value="" style="curved=1;startArrow=none;endArrow=block;exitX=1;exitY=0.49;entryX=0;entryY=0.5;" parent="2" source="7" target="9" edge="1">
          <mxGeometry relative="1" as="geometry">
            <Array as="points" />
          </mxGeometry>
        </mxCell>
        <mxCell id="19" value="Yes" style="curved=1;startArrow=none;endArrow=block;exitX=1;exitY=0.32;entryX=0;entryY=0.49;" parent="2" source="9" target="10" edge="1">
          <mxGeometry relative="1" as="geometry">
            <Array as="points">
              <mxPoint x="1271.5209354960393" y="133" />
            </Array>
          </mxGeometry>
        </mxCell>
        <mxCell id="20" value="No" style="curved=1;startArrow=none;endArrow=block;exitX=1;exitY=0.67;entryX=0;entryY=0.49;" parent="2" source="9" target="11" edge="1">
          <mxGeometry relative="1" as="geometry">
            <Array as="points">
              <mxPoint x="1271.5209354960393" y="237" />
            </Array>
          </mxGeometry>
        </mxCell>
        <mxCell id="21" value="" style="curved=1;startArrow=none;endArrow=block;exitX=1;exitY=0.49;entryX=0;entryY=0.49;" parent="2" source="10" target="3" edge="1">
          <mxGeometry relative="1" as="geometry">
            <Array as="points" />
          </mxGeometry>
        </mxCell>
        <mxCell id="22" value="" style="curved=1;startArrow=none;endArrow=block;exitX=1;exitY=0.49;entryX=0;entryY=0.49;" parent="2" source="3" target="12" edge="1">
          <mxGeometry relative="1" as="geometry">
            <Array as="points" />
          </mxGeometry>
        </mxCell>
        <mxCell id="23" value="" style="curved=1;startArrow=none;endArrow=block;exitX=1;exitY=0.49;entryX=0;entryY=0.49;" parent="2" source="12" target="13" edge="1">
          <mxGeometry relative="1" as="geometry">
            <Array as="points" />
          </mxGeometry>
        </mxCell>
        <mxCell id="zG3lf3Wdobtk3eUmgEpe-25" value="Start" style="strokeWidth=2;html=1;shape=mxgraph.flowchart.start_2;whiteSpace=wrap;" vertex="1" parent="2">
          <mxGeometry x="10" y="196" width="86.37" height="80" as="geometry" />
        </mxCell>
        <mxCell id="zG3lf3Wdobtk3eUmgEpe-26" value="" style="endArrow=classic;html=1;rounded=0;exitX=1;exitY=0.5;exitDx=0;exitDy=0;exitPerimeter=0;entryX=0;entryY=0.5;entryDx=0;entryDy=0;" edge="1" parent="2" source="zG3lf3Wdobtk3eUmgEpe-25" target="5">
          <mxGeometry width="50" height="50" relative="1" as="geometry">
            <mxPoint x="510" y="330" as="sourcePoint" />
            <mxPoint x="560" y="280" as="targetPoint" />
          </mxGeometry>
        </mxCell>
        <mxCell id="zG3lf3Wdobtk3eUmgEpe-29" value="" style="ellipse;html=1;shape=endState;fillColor=#000000;strokeColor=#ff0000;" vertex="1" parent="2">
          <mxGeometry x="2472.63" y="210" width="47.37" height="50" as="geometry" />
        </mxCell>
        <mxCell id="zG3lf3Wdobtk3eUmgEpe-27" value="" style="curved=1;startArrow=none;endArrow=block;exitX=0.539;exitY=1;entryX=0.5;entryY=0;entryDx=0;entryDy=0;exitDx=0;exitDy=0;exitPerimeter=0;" edge="1" parent="2" source="13" target="zG3lf3Wdobtk3eUmgEpe-29">
          <mxGeometry relative="1" as="geometry">
            <Array as="points" />
            <mxPoint x="2314" y="142" as="sourcePoint" />
            <mxPoint x="2390" y="142" as="targetPoint" />
          </mxGeometry>
        </mxCell>
      </root>
    </mxGraphModel>
  </diagram>
</mxfile>
